<svg width="640" height="640" viewBox="0 0 640 640" fill="none" xmlns="http://www.w3.org/2000/svg">
<g clip-path="url(#clip0_1_229)">
<path fill-rule="evenodd" clip-rule="evenodd" d="M640 320C640 496.731 496.731 640 320 640C143.269 640 0 496.731 0 320C0 143.269 143.269 0 320 0C496.731 0 640 143.269 640 320ZM320 624C487.895 624 624 487.895 624 320C624 152.105 487.895 16 320 16C152.105 16 16 152.105 16 320C16 487.895 152.105 624 320 624Z" fill="#333333"/>
<path d="M284.288 109H296.24V106.48L291.2 106.048H289.256L284.288 106.48V109ZM287.024 109H290.696L301.568 81.352L300.056 79.768L287.024 109ZM302.648 109H318.992V106.48L312.44 105.832H308.912L302.648 106.48V109ZM307.472 109H316.832L296.312 55H287.096L307.472 109ZM320 109H337.064V106.48L330.8 105.976H325.976L320 106.48V109ZM324.032 109H332.96C332.816 100.72 332.816 92.152 332.816 83.656V80.272C332.816 71.704 332.816 63.28 332.96 55H324.032C324.176 63.352 324.176 71.92 324.176 80.272V83.656C324.176 92.224 324.176 100.792 324.032 109ZM338.504 109H355.496V106.48L349.232 105.976H344.48L338.504 106.48V109ZM342.464 109H351.464C351.32 100.72 351.32 92.152 351.32 83.656V80.272C351.32 71.704 351.32 63.28 351.464 55H342.464C342.68 63.352 342.68 71.92 342.68 80.272V83.656C342.68 92.224 342.68 100.792 342.464 109ZM303.368 83.08L315.464 55H311.792L301.928 81.424L303.368 83.08ZM284.936 57.52L291.992 58.168H292.856L301.136 57.52V55H284.936V57.52ZM306.68 57.52L311.288 58.024H313.088L318.272 57.52V55H306.68V57.52ZM320 57.52L325.976 58.096H330.8L337.064 57.52V55H320V57.52ZM338.504 57.52L344.48 58.096H349.232L355.496 57.52V55H338.504V57.52Z" fill="#333333"/>
<path d="M335.12 530.712H328.712L312.296 585H315.752L329.144 538.2L327.848 539.28L340.52 585H351.392L335.12 530.712ZM306.68 531H285.44V533.52L293.216 534.024H299.192L306.68 533.52V531ZM301.208 531H290.984C291.128 539.28 291.128 547.848 291.128 556.344V559.728C291.128 568.296 291.128 576.72 290.984 585H301.208C300.992 576.648 300.992 568.08 300.992 559.728V556.344C300.992 547.776 300.992 539.208 301.208 531ZM355.064 582.48L346.28 581.76H343.328L333.392 582.48V585H355.064V582.48ZM323.24 582.48L315.68 581.832H314.24L308.048 582.48V585H323.24V582.48ZM306.68 582.48L299.192 581.904H293.216L285.44 582.48V585H306.68V582.48Z" fill="#333333"/>
<path d="M184.633 154.513L198.475 146.521L197.215 144.338L190.593 147.413L188.972 148.349L183.373 152.33L184.633 154.513ZM188.187 152.461L191.616 150.481L191.443 119.653L188.932 119.191L188.187 152.461ZM206.893 141.661L224.664 131.401L223.404 129.218L215.686 132.843L212.693 134.571L205.633 139.478L206.893 141.661ZM212.754 138.277L221.671 133.129L170.041 100.583L161.187 105.695L212.754 138.277ZM225.973 130.645L244.305 120.061L243.045 117.878L236.121 121.294L230.946 124.282L224.713 128.462L225.973 130.645ZM230.712 127.909L239.566 122.797C235.239 115.734 230.955 108.314 226.707 100.956L225.015 98.0255C220.731 90.6054 216.519 83.31 212.566 76.0313L203.712 81.1433C208.075 88.2683 212.359 95.6884 216.535 102.921L218.227 105.852C222.511 113.272 226.795 120.692 230.712 127.909ZM193.021 119.074L193.424 87.0833L189.994 89.0633L190.733 118.567L193.021 119.074ZM159.765 109.426L167.67 105.693L169.541 104.613L177.225 99.3457L175.965 97.1633L158.505 107.243L159.765 109.426ZM184.707 95.0257L190.892 92.2029L192.451 91.3029L197.988 87.3577L196.728 85.1753L183.447 92.8433L184.707 95.0257ZM200.233 86.0617L207.006 82.8165L212.181 79.8285L218.565 75.4777L217.305 73.2953L198.973 83.8793L200.233 86.0617Z" fill="#333333"/>
<path d="M428.474 500.682L422.924 503.886L435.789 559.145L438.72 557.453L427.042 510.155L426.46 511.738L460.419 544.925L469.834 539.489L428.474 500.682ZM471.754 535.47L463.725 539.275L461.231 540.715L452.924 546.342L454.184 548.525L473.014 537.653L471.754 535.47ZM443.945 551.526L437.074 554.745L435.889 555.429L430.788 559.122L432.048 561.305L445.205 553.709L443.945 551.526Z" fill="#333333"/>
<path d="M125.677 234.578L133.669 220.735L131.486 219.475L127.325 225.387L126.389 227.008L123.494 233.318L125.677 234.578ZM127.765 230.961L129.745 227.532L114.181 200.921L111.775 201.776L127.765 230.961ZM138.565 212.255L148.825 194.484L146.642 193.224L141.771 200.222L140.043 203.215L136.382 210.995L138.565 212.255ZM141.949 206.394L147.097 197.477L86.1113 195.107L80.9993 203.961L141.949 206.394ZM115.258 199.631L99.6113 171.724L97.6313 175.154L113.023 200.335L115.258 199.631ZM81.6337 207.903L86.5772 200.78L87.6932 198.847L91.7137 190.444L89.5313 189.184L79.4513 206.643L81.6337 207.903ZM95.9977 183.023L99.9428 177.486L100.879 175.865L103.702 169.68L101.519 168.42L93.8153 181.763L95.9977 183.023Z" fill="#333333"/>
<path d="M520.011 395.57L509.391 413.965L511.574 415.225L515.862 408.805L518.886 403.567L522.194 396.83L520.011 395.57ZM517.275 400.309L512.163 409.163C519.406 413.179 526.826 417.463 534.184 421.711L537.114 423.403C544.535 427.687 551.83 431.899 558.929 436.163L564.041 427.309C556.7 423.32 549.28 419.036 542.046 414.86L539.116 413.168C531.696 408.884 524.276 404.6 517.275 400.309ZM498.522 432.215L495.318 437.764L534.125 479.125L535.853 476.132L502.055 441.072L502.306 442.797L548.237 454.682L553.673 445.267L498.522 432.215ZM564.594 421.31L560.351 427.507L557.327 432.745L553.974 439.705L556.157 440.965L566.777 422.57L564.594 421.31ZM553.29 440.889L548.311 448.074L546.835 450.631L542.49 459.595L544.673 460.855L555.473 442.149L553.29 440.889ZM537.378 468.45L533.073 474.61L532.389 475.795L529.818 481.544L532.001 482.804L539.561 469.71L537.378 468.45Z" fill="#333333"/>
<path d="M109 354.416L109 333.176L106.48 333.176L105.976 340.952L105.976 346.928L106.48 354.416L109 354.416ZM109 348.944L109 338.72C100.72 338.936 92.152 338.936 83.656 338.936L80.272 338.936C71.704 338.936 63.28 338.936 55 338.72L55 348.944C63.352 348.728 71.92 348.728 80.272 348.728L83.656 348.728C92.224 348.728 100.792 348.728 109 348.944ZM109 331.88L109 315.968L106.48 315.968L105.832 323.168L105.832 325.04L106.48 331.88L109 331.88ZM109 327.776L109 323.744L82.216 308.552L80.56 310.424L109 327.776ZM109 306.248L109 285.656L106.48 285.656L105.76 294.08L105.76 297.608L106.48 306.248L109 306.248ZM109 299.48L109 289.04L55 317.552L55 327.776L109 299.48ZM82.504 306.896L55 290.48L55 294.512L80.92 308.624L82.504 306.896ZM57.52 354.416L58.096 346.928L58.096 340.952L57.52 333.176L55 333.176L55 354.416L57.52 354.416ZM57.52 330.872L58.24 322.16L58.24 320L57.52 310.712L55 310.712L55 330.872L57.52 330.872ZM57.52 302.144L58.168 295.304L58.168 293.504L57.52 286.736L55 286.736L55 302.144L57.52 302.144Z" fill="#333333"/>
<path d="M531 286.304L531 307.472L533.52 307.472L534.024 299.768L534.024 293.792L533.52 286.304L531 286.304ZM531 291.776L531 302C539.28 301.784 547.848 301.784 556.344 301.784L559.728 301.784C568.296 301.784 576.72 301.784 585 302L585 291.776C576.648 291.992 568.08 291.992 559.728 291.992L556.344 291.992C547.776 291.992 539.208 291.992 531 291.776ZM531 309.416L531 330.512L533.52 330.512L534.024 322.88L534.024 316.832L533.52 309.416L531 309.416ZM531 314.816L531 325.112C539.28 324.896 547.848 324.896 556.344 324.896L559.728 324.896C568.296 324.896 576.72 324.896 585 325.112L585 314.816C576.648 315.032 568.08 315.032 559.728 315.032L556.344 315.032C547.776 315.032 539.208 315.032 531 314.816ZM531 332.456L531 353.624L533.52 353.624L534.024 345.92L534.024 339.944L533.52 332.456L531 332.456ZM531 337.928L531 348.152C539.28 347.936 547.848 347.936 556.344 347.936L559.728 347.936C568.296 347.936 576.72 347.936 585 348.152L585 337.928C576.648 338.144 568.08 338.144 559.728 338.144L556.344 338.144C547.776 338.144 539.208 338.144 531 337.928ZM582.48 286.304L581.904 293.792L581.904 299.768L582.48 307.472L585 307.472L585 286.304L582.48 286.304ZM582.48 309.416L581.904 316.832L581.904 322.88L582.48 330.512L585 330.512L585 309.416L582.48 309.416ZM582.48 332.456L581.904 339.944L581.904 345.92L582.48 353.624L585 353.624L585 332.456L582.48 332.456Z" fill="#333333"/>
<path d="M149.146 445.496L146.518 440.944L94.3193 459.11L96.1193 462.227L139.54 446.137L137.637 446.155L103.247 474.573L107.747 482.367L149.146 445.496ZM139.789 429.865L133.309 418.641L131.126 419.901L133.102 424.331L134.83 427.324L137.606 431.125L139.789 429.865ZM138.421 427.495L134.641 420.948C127.542 425.213 120.122 429.497 112.764 433.745L109.833 435.437C102.413 439.721 95.118 443.933 87.8753 447.948L91.6553 454.495C98.7803 450.132 106.2 445.848 113.433 441.672L116.364 439.98C123.784 435.696 131.204 431.412 138.421 427.495ZM132.913 417.955L126.469 406.794L124.286 408.054L126.298 412.546L127.99 415.477L130.73 419.215L132.913 417.955ZM131.581 415.648L127.801 409.101C120.738 413.428 113.318 417.712 105.96 421.96L103.029 423.652C95.6094 427.936 88.314 432.148 81.0353 436.101L84.8153 442.648C91.9403 438.285 99.3604 434.001 106.593 429.825L109.524 428.133C116.944 423.849 124.364 419.565 131.581 415.648ZM126.073 406.108L119.593 394.884L117.41 396.144L119.458 400.699L121.114 403.567L123.89 407.368L126.073 406.108ZM124.741 403.801L120.961 397.254C113.898 401.581 106.478 405.865 99.1201 410.113L96.1895 411.805C88.7694 416.089 81.474 420.301 74.1953 424.254L77.9753 430.801C85.1003 426.438 92.5204 422.154 99.7535 417.978L102.684 416.286C110.104 412.002 117.524 407.718 124.741 403.801ZM108.403 477.167L106.927 474.61L103.126 469.323L100.943 470.583L108.467 483.615L110.65 482.355L108.403 477.167ZM100.21 464.272L98.4862 460.279L97.6222 458.782L95.4577 456.041L93.2753 457.301L98.0273 465.532L100.21 464.272ZM95.1697 455.542L93.3645 451.264L91.6365 448.271L88.7257 444.381L86.5433 445.641L92.9873 456.802L95.1697 455.542ZM88.3297 443.695L86.5245 439.417L84.8325 436.486L81.8857 432.534L79.7033 433.794L86.1473 444.955L88.3297 443.695ZM81.4897 431.848L79.6485 427.507L77.9925 424.639L75.0097 420.624L72.8273 421.884L79.3073 433.108L81.4897 431.848Z" fill="#333333"/>
<path d="M490.311 192.988L502.119 213.44L504.302 212.18L500.274 204.196L497.25 198.958L492.494 191.728L490.311 192.988ZM493.659 198.787L498.771 207.641C505.834 203.314 513.254 199.03 520.612 194.782L523.543 193.09C530.963 188.806 538.258 184.594 545.537 180.641L540.425 171.787C533.3 176.15 525.88 180.434 518.647 184.61L515.716 186.302C508.296 190.586 500.876 194.87 493.659 198.787ZM503.307 215.498L515.115 235.95L517.298 234.69L513.27 226.706L510.282 221.53L505.49 214.238L503.307 215.498ZM506.655 221.297L511.767 230.151C518.83 225.824 526.25 221.54 533.608 217.292L536.539 215.6C543.959 211.316 551.254 207.104 558.533 203.151L553.421 194.297C546.296 198.66 538.876 202.944 531.643 207.12L528.712 208.812C521.292 213.096 513.872 217.38 506.655 221.297ZM534.894 167.248L538.716 175.018L541.74 180.256L546.702 187.7L548.885 186.44L537.077 165.988L534.894 167.248ZM547.89 189.758L551.748 197.59L554.736 202.766L559.698 210.21L561.881 208.95L550.073 188.498L547.89 189.758Z" fill="#333333"/>
<path d="M233.35 513.282L228.424 510.438L190.867 551.441L193.985 553.241L225.258 517.506L223.281 518.194L208.202 561.449L216.806 566.417L233.35 513.282ZM214.5 502.731L199.722 494.199L198.462 496.382L203.635 499.95L207.813 502.362L213.24 504.914L214.5 502.731ZM211.008 500.715L203.276 496.251C199.261 503.494 194.977 510.914 190.729 518.272L189.037 521.203C184.753 528.623 180.541 535.918 176.276 543.017L184.008 547.481C188.06 540.176 192.344 532.756 196.52 525.523L198.212 522.592C202.496 515.172 206.78 507.752 211.008 500.715ZM198.475 493.479L183.76 484.983L182.5 487.166L187.672 490.734L191.788 493.11L197.215 495.662L198.475 493.479ZM195.046 491.499L187.251 486.999C183.236 494.242 178.952 501.662 174.704 509.02L173.012 511.951C168.728 519.371 164.516 526.666 160.251 533.765L168.046 538.265C172.035 530.924 176.319 523.504 180.495 516.271L182.187 513.34C186.471 505.92 190.755 498.5 195.046 491.499ZM219.563 565.098L214.711 561.549L211.781 559.857L204.972 556.674L203.712 558.857L218.303 567.281L219.563 565.098ZM199.984 553.794L195.185 550.442L193.751 549.614L189.882 547.962L188.622 550.145L198.724 555.977L199.984 553.794ZM188.76 547.314L183.873 543.828L179.695 541.416L173.982 538.782L172.722 540.965L187.5 549.497L188.76 547.314ZM172.735 538.062L167.848 534.576L163.732 532.2L158.02 529.566L156.76 531.749L171.475 540.245L172.735 538.062Z" fill="#333333"/>
<path d="M413.403 130.285L437.534 144.217L438.794 142.034L429.542 136.027L424.304 133.003L414.663 128.102L413.403 130.285ZM421.01 134.677L429.927 139.825C433.88 132.546 438.164 125.126 442.412 117.768L444.104 114.837C448.388 107.417 452.6 100.122 456.927 93.0593L448.01 87.9113C444.022 95.2523 439.738 102.672 435.562 109.905L433.87 112.836C429.586 120.256 425.302 127.676 421.01 134.677ZM439.143 85.7016L448.208 91.6005L453.446 94.6245L463.274 99.6336L464.534 97.4513L440.403 83.5193L439.143 85.7016Z" fill="#333333"/>
<rect x="316" y="20" width="8" height="20" fill="#333333"/>
<rect x="316" y="600" width="8" height="20" fill="#333333"/>
<rect x="466.536" y="58.1924" width="8" height="20" transform="rotate(30 466.536 58.1924)" fill="#333333"/>
<rect x="176.536" y="560.487" width="8" height="20" transform="rotate(30 176.536 560.487)" fill="#333333"/>
<rect x="577.808" y="166.536" width="8" height="20" transform="rotate(60 577.808 166.536)" fill="#333333"/>
<rect x="75.5129" y="456.536" width="8" height="20" transform="rotate(60 75.5129 456.536)" fill="#333333"/>
<rect x="581.808" y="466.536" width="8" height="20" transform="rotate(120 581.808 466.536)" fill="#333333"/>
<rect x="79.5129" y="176.536" width="8" height="20" transform="rotate(120 79.5129 176.536)" fill="#333333"/>
<rect x="620" y="316" width="8" height="20" transform="rotate(90 620 316)" fill="#333333"/>
<rect x="40" y="316" width="8" height="20" transform="rotate(90 40 316)" fill="#333333"/>
<rect x="473.464" y="577.808" width="8" height="20" transform="rotate(150 473.464 577.808)" fill="#333333"/>
<rect x="183.464" y="75.5129" width="8" height="20" transform="rotate(150 183.464 75.5129)" fill="#333333"/>
<rect x="286.652" y="21.8525" width="4" height="10" transform="rotate(-6 286.652 21.8525)" fill="#333333"/>
<rect x="348.324" y="608.62" width="4" height="10" transform="rotate(-6 348.324 608.62)" fill="#333333"/>
<rect x="255.67" y="26.9715" width="4" height="10" transform="rotate(-12 255.67 26.9715)" fill="#333333"/>
<rect x="378.338" y="604.079" width="4" height="10" transform="rotate(-12 378.338 604.079)" fill="#333333"/>
<rect x="225.393" y="35.3011" width="4" height="10" transform="rotate(-18 225.393 35.3011)" fill="#333333"/>
<rect x="407.713" y="596.424" width="4" height="10" transform="rotate(-18 407.713 596.424)" fill="#333333"/>
<rect x="196.152" y="46.7498" width="4" height="10" transform="rotate(-24 196.152 46.7498)" fill="#333333"/>
<rect x="436.126" y="585.742" width="4" height="10" transform="rotate(-24 436.126 585.742)" fill="#333333"/>
<rect x="21.8524" y="353.348" width="4" height="10" transform="rotate(-96 21.8524 353.348)" fill="#333333"/>
<rect x="608.62" y="291.676" width="4" height="10" transform="rotate(-96 608.62 291.676)" fill="#333333"/>
<rect x="26.9715" y="384.33" width="4" height="10" transform="rotate(-102 26.9715 384.33)" fill="#333333"/>
<rect x="604.079" y="261.662" width="4" height="10" transform="rotate(-102 604.079 261.662)" fill="#333333"/>
<rect x="35.301" y="414.607" width="4" height="10" transform="rotate(-108 35.301 414.607)" fill="#333333"/>
<rect x="596.424" y="232.287" width="4" height="10" transform="rotate(-108 596.424 232.287)" fill="#333333"/>
<rect x="46.7498" y="443.848" width="4" height="10" transform="rotate(-114 46.7498 443.848)" fill="#333333"/>
<rect x="585.742" y="203.873" width="4" height="10" transform="rotate(-114 585.742 203.873)" fill="#333333"/>
<rect x="142.046" y="78.4705" width="4" height="10" transform="rotate(-36 142.046 78.4705)" fill="#333333"/>
<rect x="488.84" y="555.791" width="4" height="10" transform="rotate(-36 488.84 555.791)" fill="#333333"/>
<rect x="117.774" y="98.3948" width="4" height="10" transform="rotate(-42 117.774 98.3948)" fill="#333333"/>
<rect x="512.562" y="536.85" width="4" height="10" transform="rotate(-42 512.562 536.85)" fill="#333333"/>
<rect x="95.7183" y="120.747" width="4" height="10" transform="rotate(-48 95.7183 120.747)" fill="#333333"/>
<rect x="534.174" y="515.534" width="4" height="10" transform="rotate(-48 534.174 515.534)" fill="#333333"/>
<rect x="76.1193" y="145.282" width="4" height="10" transform="rotate(-54 76.1193 145.282)" fill="#333333"/>
<rect x="553.439" y="492.076" width="4" height="10" transform="rotate(-54 553.439 492.076)" fill="#333333"/>
<rect x="78.4705" y="497.954" width="4" height="10" transform="rotate(-126 78.4705 497.954)" fill="#333333"/>
<rect x="555.791" y="151.16" width="4" height="10" transform="rotate(-126 555.791 151.16)" fill="#333333"/>
<rect x="98.3948" y="522.226" width="4" height="10" transform="rotate(-132 98.3948 522.226)" fill="#333333"/>
<rect x="536.85" y="127.438" width="4" height="10" transform="rotate(-132 536.85 127.438)" fill="#333333"/>
<rect x="120.747" y="544.282" width="4" height="10" transform="rotate(-138 120.747 544.282)" fill="#333333"/>
<rect x="515.534" y="105.826" width="4" height="10" transform="rotate(-138 515.534 105.826)" fill="#333333"/>
<rect x="145.282" y="563.881" width="4" height="10" transform="rotate(-144 145.282 563.881)" fill="#333333"/>
<rect x="492.076" y="86.5607" width="4" height="10" transform="rotate(-144 492.076 86.5607)" fill="#333333"/>
<rect x="45.1229" y="199.806" width="4" height="10" transform="rotate(-66 45.1229 199.806)" fill="#333333"/>
<rect x="584.115" y="439.781" width="4" height="10" transform="rotate(-66 584.115 439.781)" fill="#333333"/>
<rect x="34.0649" y="229.197" width="4" height="10" transform="rotate(-72 34.0649 229.197)" fill="#333333"/>
<rect x="595.188" y="411.517" width="4" height="10" transform="rotate(-72 595.188 411.517)" fill="#333333"/>
<rect x="26.1398" y="259.583" width="4" height="10" transform="rotate(-78 26.1398 259.583)" fill="#333333"/>
<rect x="603.247" y="382.251" width="4" height="10" transform="rotate(-78 603.247 382.251)" fill="#333333"/>
<rect x="21.4343" y="290.631" width="4" height="10" transform="rotate(-84 21.4343 290.631)" fill="#333333"/>
<rect x="608.202" y="352.302" width="4" height="10" transform="rotate(-84 608.202 352.302)" fill="#333333"/>
<rect x="199.806" y="594.877" width="4" height="10" transform="rotate(-156 199.806 594.877)" fill="#333333"/>
<rect x="439.781" y="55.8853" width="4" height="10" transform="rotate(-156 439.781 55.8853)" fill="#333333"/>
<rect x="229.197" y="605.935" width="4" height="10" transform="rotate(-162 229.197 605.935)" fill="#333333"/>
<rect x="411.517" y="44.8117" width="4" height="10" transform="rotate(-162 411.517 44.8117)" fill="#333333"/>
<rect x="259.583" y="613.86" width="4" height="10" transform="rotate(-168 259.583 613.86)" fill="#333333"/>
<rect x="382.251" y="36.7531" width="4" height="10" transform="rotate(-168 382.251 36.7531)" fill="#333333"/>
<rect x="290.63" y="618.566" width="4" height="10" transform="rotate(-174 290.63 618.566)" fill="#333333"/>
<rect x="352.302" y="31.7978" width="4" height="10" transform="rotate(-174 352.302 31.7978)" fill="#333333"/>
</g>
<defs>
<clipPath id="clip0_1_229">
<rect width="640" height="640" fill="white"/>
</clipPath>
</defs>
</svg>
